<svg width="54" height="54" viewBox="0 0 54 54" fill="none" xmlns="http://www.w3.org/2000/svg">
<g clip-path="url(#clip0_3_5)">
<circle cx="26.9999" cy="27" r="27" fill="#75ECBF"/>
<path d="M10.9138 50.5991C10.0281 52.2951 8.95507 53.5232 7.69466 54.2835C6.43424 55.0437 5.1181 55.4974 3.74623 55.6444C2.39967 55.7429 1.02052 55.6086 -0.391195 55.2414C-1.75446 54.8995 -2.99335 54.4376 -4.10787 53.8556L18.2489 11.0435C19.919 7.84532 21.9364 5.75357 24.3011 4.76825C26.6658 3.78292 29.2291 4.01145 31.9912 5.45382C33.348 6.16235 34.3845 7.01195 35.1006 8.00262C35.842 8.94483 36.3136 9.93119 36.5155 10.9617C36.7175 11.9922 36.6865 13.0553 36.4227 14.151C36.2327 15.2235 35.8719 16.2686 35.3405 17.2862L34.961 18.013C34.7736 17.5452 34.4872 17.1489 34.1017 16.8242C33.7899 16.4764 33.4402 16.2013 33.0525 15.9989C32.3257 15.6193 31.6683 15.461 31.0803 15.524C30.5662 15.5639 30.0741 15.7386 29.604 16.0482C29.2078 16.3346 28.822 16.719 28.4467 17.2015C28.1199 17.7092 27.8047 18.2538 27.501 18.8353L10.9138 50.5991ZM40.2742 9.96426C40.5165 10.0908 40.7103 10.192 40.8557 10.2679C41.0748 10.3207 41.3055 10.4103 41.5478 10.5368C44.5037 12.0804 46.3637 14.0693 47.1277 16.5034C47.8917 18.9376 47.3501 21.9234 45.5029 25.4607L38.7086 38.4715C37.8735 40.0706 36.8974 41.3494 35.7802 42.3078C34.7115 43.2915 33.5617 44.017 32.3309 44.4843C31.1739 44.9285 29.9484 45.0904 28.6546 44.9698C27.4093 44.8745 26.2051 44.5232 25.0421 43.9159C23.54 43.1314 22.4308 42.2439 21.7147 41.2532C20.9986 40.2625 20.5523 39.2277 20.3757 38.1487C20.2728 37.0466 20.3659 35.9235 20.6551 34.7794C20.9926 33.6605 21.4271 32.5923 21.9585 31.5747C22.4345 32.3166 23.1086 32.9153 23.9808 33.3708C24.7077 33.7504 25.3282 33.9203 25.8424 33.8804C26.4303 33.8174 26.9224 33.6427 27.3187 33.3562C27.7887 33.0467 28.1871 32.638 28.5139 32.1303C28.8892 31.6478 29.2287 31.1159 29.5323 30.5344L40.2742 9.96426Z" fill="white"/>
</g>
<defs>
<clipPath id="clip0_3_5">
<rect width="54" height="54" rx="27" fill="white"/>
</clipPath>
</defs>
</svg>
